<svg width="104" height="26" viewBox="0 0 104 26" fill="none" xmlns="http://www.w3.org/2000/svg">
<path d="M15.5882 9.24929C15.1921 8.17541 14.4768 7.29988 13.4444 6.62192C13.0828 6.38483 12.6868 6.19036 12.2563 6.03772L12.5616 4.13247C12.657 3.5382 12.5905 3.09114 12.3651 2.80368C12.2547 2.66422 12.1256 2.56194 11.9699 2.49763C11.8157 2.431 11.6341 2.40001 11.4134 2.40001C10.9453 2.40001 10.5493 2.55729 10.2049 2.88116C9.8441 3.21743 9.60304 3.75359 9.48798 4.47494L9.30562 5.60848C9.08177 5.61158 8.86106 5.6232 8.64269 5.64024L8.88532 4.13325C8.98003 3.53897 8.9135 3.09191 8.68652 2.80446C8.57773 2.66499 8.44859 2.56272 8.29362 2.49841C8.13943 2.43178 7.95628 2.40078 7.73713 2.40078C7.26909 2.40078 6.87306 2.55807 6.52868 2.88194C6.16708 3.2182 5.9268 3.75437 5.81175 4.47571L5.49789 6.42822C4.65573 6.80555 3.90123 7.29988 3.23752 7.91042C2.43058 8.65346 1.76373 9.54372 1.23856 10.5827C0.712598 11.6202 0.353349 12.7468 0.156897 13.9609C-0.255574 16.541 0.145157 18.5818 1.35987 20.088C1.9414 20.8094 2.68651 21.3587 3.59442 21.7322L3.25161 23.8675C3.15847 24.4618 3.22343 24.9089 3.45119 25.1963C3.55998 25.335 3.68834 25.4381 3.84409 25.5024C3.99906 25.569 4.18143 25.6 4.40058 25.6C4.86862 25.6 5.26465 25.4427 5.6106 25.1189C5.97063 24.7826 6.21169 24.2464 6.32753 23.5251L6.51929 22.3303C6.71339 22.3389 6.91219 22.3435 7.11569 22.3435H7.17439L6.93097 23.8675C6.83549 24.4618 6.90202 24.9089 7.12743 25.1963C7.23778 25.335 7.36536 25.4381 7.52033 25.5024C7.67608 25.569 7.85767 25.6 8.07838 25.6C8.54642 25.6 8.94089 25.4427 9.28684 25.1189C9.64765 24.7826 9.88871 24.2464 10.0038 23.5251L10.2683 21.8809C11.184 21.5819 11.9667 21.2061 12.6148 20.7559C13.2714 20.2996 13.7849 19.8231 14.1543 19.3264C14.5222 18.8298 14.7358 18.3966 14.7961 18.024C14.8634 17.604 14.7859 17.2778 14.5636 17.0462C14.3414 16.8153 14.0205 16.7006 13.6025 16.7006C13.2135 16.7006 12.8989 16.7897 12.6602 16.9702C12.0755 17.4537 11.6012 17.8341 11.2357 18.1154C10.8718 18.3966 10.4804 18.6601 10.0609 18.9049C9.64374 19.1513 9.22344 19.3318 8.80079 19.4473C8.37815 19.5627 7.92106 19.6208 7.43424 19.6208C6.70478 19.6208 6.06846 19.4395 5.52372 19.0785C4.97819 18.7174 4.58138 18.1797 4.33014 17.4684C4.08124 16.7548 4.02567 15.9335 4.16499 14.9999H12.1538C13.2221 14.9999 14.0745 14.8457 14.7116 14.5397C15.3502 14.2336 15.751 13.5634 15.9169 12.5314C16.0953 11.4172 15.9866 10.3239 15.589 9.25006M11.9456 12.667H4.53911C4.89993 11.2824 5.46502 10.2348 6.23048 9.52822C6.9975 8.81927 7.89054 8.46751 8.90802 8.46751C9.9255 8.46751 10.7778 8.81462 11.3194 9.5135C11.8603 10.21 12.07 11.2622 11.9448 12.667" fill="#FCC200"/>
<path d="M24.5014 20.6899L22.2577 16.2855L18.5464 20.6899C18.0134 21.3054 17.5752 21.744 17.231 22.0066C16.8869 22.2683 16.4829 22.4 16.0175 22.4C15.5024 22.4 15.0906 22.2356 14.7814 21.9084C14.4722 21.5804 14.351 21.2041 14.4178 20.781C14.4862 20.347 14.8615 19.7269 15.5436 18.9189L20.059 13.5618L17.5138 9.09666C17.0656 8.3604 16.8845 7.71997 16.9708 7.17459C17.0384 6.75076 17.2645 6.38223 17.6506 6.06981C18.0359 5.75661 18.5021 5.60001 19.0467 5.60001C19.5222 5.60001 19.8935 5.73635 20.1624 6.00904C20.4312 6.28173 20.7272 6.71102 21.0504 7.29613L23.0999 10.9587L26.234 7.29613C26.7553 6.69076 27.1927 6.2568 27.5462 5.99424C27.8989 5.73168 28.3083 5.60079 28.7737 5.60079C29.309 5.60079 29.727 5.75505 30.03 6.06202C30.3322 6.36977 30.4495 6.74141 30.3811 7.17459C30.3314 7.4878 30.2125 7.78775 30.0238 8.07525C29.8342 8.36274 29.5599 8.70321 29.201 9.09666L25.2426 13.5618L28.0636 18.9189C28.5049 19.7565 28.6929 20.3876 28.6253 20.8106C28.5562 21.2446 28.3192 21.6178 27.9137 21.931C27.5073 22.2434 27.0427 22.4 26.5175 22.4C26.0522 22.4 25.6792 22.2637 25.4011 21.991C25.1222 21.7191 24.8223 21.2851 24.5007 20.6899" fill="#500FE9"/>
<path d="M44.6836 17.3158C44.6015 17.8299 44.3613 18.3808 43.9647 18.9651C43.5673 19.5501 43.015 20.108 42.3078 20.637C41.6007 21.1667 40.7472 21.5937 39.749 21.9162C38.75 22.2387 37.6579 22.4 36.472 22.4C33.9491 22.4 32.099 21.656 30.9209 20.168C29.742 18.6799 29.3524 16.6847 29.7514 14.1823C30.0212 12.487 30.5837 10.9889 31.4395 9.68704C32.2946 8.38598 33.3921 7.37942 34.7314 6.66734C36.0707 5.95604 37.593 5.60001 39.2976 5.60001C40.3537 5.60001 41.2987 5.7566 42.131 6.06901C42.9634 6.3822 43.6471 6.78654 44.1814 7.2797C44.7157 7.77441 45.0998 8.30106 45.3353 8.86122C45.57 9.42138 45.6482 9.94336 45.5715 10.4279C45.4933 10.9227 45.2438 11.341 44.8252 11.6838C44.4067 12.0266 43.9381 12.198 43.4195 12.198C43.0807 12.198 42.8132 12.11 42.6176 11.9331C42.4213 11.7563 42.2147 11.4719 41.9988 11.0785C41.6218 10.3111 41.1923 9.73612 40.7104 9.35204C40.2285 8.96873 39.5683 8.77708 38.7312 8.77708C37.5242 8.77708 36.4767 9.25387 35.5872 10.2075C34.697 11.1611 34.1212 12.4652 33.8576 14.12C33.734 14.8967 33.7152 15.6104 33.8005 16.2609C33.8857 16.9122 34.0719 17.4669 34.3575 17.9258C34.643 18.3854 35.0216 18.7329 35.4918 18.9697C35.9627 19.2074 36.5017 19.3258 37.1103 19.3258C37.9278 19.3258 38.6585 19.1349 39.3031 18.7508C39.9477 18.3675 40.5563 17.7824 41.1305 16.9956C41.4536 16.532 41.7806 16.1682 42.1115 15.9056C42.4424 15.6439 42.8179 15.5122 43.2364 15.5122C43.7347 15.5122 44.1181 15.7038 44.3856 16.0872C44.6539 16.4712 44.7533 16.8795 44.6836 17.3134" fill="#500FE9"/>
<path d="M63.053 14.0004C62.8544 15.2314 62.4778 16.3666 61.9249 17.4059C61.372 18.4445 60.6713 19.3373 59.8212 20.0845C58.9712 20.8309 58.0083 21.4035 56.931 21.8016C55.8538 22.2006 54.6835 22.4 53.418 22.4C52.1524 22.4 51.0664 22.1982 50.129 21.7946C49.1924 21.3911 48.4178 20.813 47.8053 20.0619C47.1927 19.3108 46.7796 18.4226 46.5659 17.3981C46.3514 16.3744 46.3451 15.2415 46.5461 14.0004C46.7486 12.7491 47.126 11.6038 47.6797 10.5645C48.2319 9.52595 48.9278 8.63777 49.7659 7.90073C50.6033 7.16446 51.5662 6.59649 52.6537 6.19836C53.7397 5.79946 54.9012 5.60001 56.1366 5.60001C57.3719 5.60001 58.4985 5.8018 59.4558 6.20538C60.4131 6.60896 61.1956 7.18394 61.8034 7.93033C62.4119 8.6775 62.8226 9.56491 63.0355 10.5941C63.2484 11.6241 63.2548 12.7593 63.0538 13.9996M58.8933 13.9996C59.1658 12.3144 59.0061 11.0024 58.4135 10.0643C57.8208 9.12627 56.8969 8.65724 55.6416 8.65724C54.8313 8.65724 54.0845 8.86682 53.3989 9.28521C52.7133 9.70437 52.1374 10.3222 51.6718 11.1395C51.2055 11.9568 50.8845 12.9096 50.7082 14.0004C50.5334 15.0802 50.5453 16.0238 50.7431 16.8309C50.9417 17.6381 51.3127 18.2567 51.8561 18.6852C52.3987 19.1145 53.0859 19.3287 53.9161 19.3287C55.1705 19.3287 56.247 18.8574 57.1439 17.9131C58.0401 16.9696 58.6232 15.6661 58.8933 14.0012" fill="#500FE9"/>
<path d="M70.1426 8.17661L68.2082 19.9275C68.0746 20.7417 67.7756 21.3573 67.3118 21.7744C66.8473 22.1915 66.3121 22.4 65.7036 22.4C65.0951 22.4 64.6362 22.1861 64.3268 21.7598C64.0174 21.3328 63.9275 20.7225 64.0579 19.9275L65.9732 8.29621C66.1053 7.49197 66.3948 6.88629 66.8426 6.47842C67.2896 6.07208 67.8177 5.86814 68.4254 5.86814C69.0331 5.86814 69.5015 6.07208 69.83 6.47842C70.1585 6.88629 70.2627 7.4521 70.1442 8.17661M68.7825 3.97675C68.2051 3.97675 67.7398 3.80272 67.3866 3.45541C67.0327 3.10734 66.9086 2.61667 67.0136 1.98109C67.1082 1.40532 67.3962 0.930746 67.8782 0.558141C68.3602 0.186303 68.8795 0 69.4371 0C69.9947 0 70.4226 0.168669 70.7829 0.506007C71.1432 0.843345 71.2697 1.33555 71.1639 1.98109C71.0613 2.6067 70.7781 3.09507 70.3144 3.44775C69.8507 3.80042 69.3409 3.97675 68.7833 3.97675" fill="#500FE9"/>
<path d="M76.6828 7.8866L76.6073 8.38598C77.4309 7.42772 78.2797 6.72343 79.1529 6.27469C80.0268 5.82594 80.9873 5.60079 82.0336 5.60079C83.08 5.60079 83.9265 5.83762 84.6569 6.31208C85.3865 6.78654 85.8845 7.45732 86.1502 8.32522C86.3293 8.82928 86.4114 9.37463 86.3988 9.95972C86.3862 10.5448 86.3115 11.2919 86.1746 12.1996L85.0158 19.8875C84.8915 20.7149 84.6206 21.3405 84.2025 21.7643C83.7852 22.1881 83.2931 22.4 82.7278 22.4C82.1624 22.4 81.7177 22.1826 81.4254 21.7495C81.1323 21.3155 81.0465 20.6954 81.1686 19.8875L82.2061 13.0012C82.411 11.6386 82.3911 10.597 82.1461 9.87558C81.9012 9.15415 81.2507 8.79344 80.1948 8.79344C79.5066 8.79344 78.8458 9.01236 78.2138 9.45176C77.5819 9.89038 77.0765 10.4934 76.6969 11.26C76.4157 11.8755 76.1478 13.0262 75.894 14.7105L75.114 19.8867C74.9875 20.725 74.7115 21.3529 74.286 21.7713C73.8598 22.1904 73.3588 22.3992 72.7846 22.3992C72.2103 22.3992 71.8033 22.1819 71.5103 21.7487C71.2173 21.3148 71.1322 20.6946 71.2535 19.8867L73.0524 7.9458C73.1716 7.15894 73.4195 6.57151 73.7991 6.18276C74.178 5.794 74.6456 5.60001 75.2021 5.60001C75.5418 5.60001 75.8355 5.68648 76.0827 5.85788C76.3298 6.02928 76.5104 6.28637 76.6244 6.62917C76.7368 6.97274 76.7568 7.3911 76.6821 7.88582" fill="#500FE9"/>
<path d="M103.858 14.0004C103.669 15.2314 103.311 16.3666 102.785 17.4059C102.258 18.4445 101.59 19.3373 100.781 20.0845C99.9718 20.8309 99.0548 21.4035 98.0288 21.8016C97.0029 22.2006 95.8884 22.4 94.6831 22.4C93.4779 22.4 92.4436 22.1982 91.5516 21.7946C90.6588 21.3911 89.9211 20.813 89.3377 20.0619C88.7544 19.3108 88.361 18.4226 88.1574 17.3981C87.9539 16.3744 87.9478 15.2415 88.1385 14.0004C88.3314 12.7491 88.6916 11.6038 89.2182 10.5645C89.744 9.52595 90.4068 8.63777 91.205 7.90073C92.0033 7.16446 92.9203 6.59649 93.9553 6.19836C94.9903 5.79946 96.0957 5.60001 97.273 5.60001C98.4503 5.60001 99.5216 5.8018 100.433 6.20538C101.345 6.60896 102.09 7.18394 102.67 7.93033C103.249 8.6775 103.641 9.56491 103.843 10.5941C104.046 11.6241 104.052 12.7593 103.861 13.9996M99.8984 13.9996C100.158 12.3144 100.006 11.0024 99.4414 10.0643C98.8778 9.12627 97.9978 8.65724 96.8024 8.65724C96.0307 8.65724 95.3187 8.86682 94.6657 9.28521C94.0135 9.70437 93.465 10.3222 93.0209 11.1395C92.5768 11.9568 92.2711 12.9096 92.1031 14.0004C91.9367 15.0802 91.948 16.0238 92.1372 16.8309C92.3263 17.6381 92.6789 18.2567 93.1964 18.6852C93.7132 19.1145 94.3676 19.3287 95.1583 19.3287C96.353 19.3287 97.3782 18.8574 98.2324 17.9131C99.0866 16.9696 99.6412 15.6661 99.8984 14.0012" fill="#500FE9"/>
</svg>
